<?xml version="1.0" encoding="UTF-8"?>
<svg width="312px" height="116px" viewBox="0 0 312 116" version="1.1" xmlns="http://www.w3.org/2000/svg" xmlns:xlink="http://www.w3.org/1999/xlink">
    <!-- Generator: Sketch 59.1 (86144) - https://sketch.com -->
    <title>Illustration</title>
    <desc>Created with Sketch.</desc>
    <defs>
        <linearGradient x1="50%" y1="100%" x2="50%" y2="0.0043144361%" id="linearGradient-1">
            <stop stop-color="#808080" stop-opacity="0.25" offset="0%"></stop>
            <stop stop-color="#808080" stop-opacity="0.12" offset="54%"></stop>
            <stop stop-color="#808080" stop-opacity="0.1" offset="100%"></stop>
        </linearGradient>
        <linearGradient x1="50%" y1="100%" x2="50%" y2="-2.2033937e-15%" id="linearGradient-2">
            <stop stop-color="#808080" stop-opacity="0.25" offset="0%"></stop>
            <stop stop-color="#808080" stop-opacity="0.12" offset="54%"></stop>
            <stop stop-color="#808080" stop-opacity="0.1" offset="100%"></stop>
        </linearGradient>
        <linearGradient x1="50%" y1="99.9956856%" x2="50%" y2="0%" id="linearGradient-3">
            <stop stop-color="#808080" stop-opacity="0.25" offset="0%"></stop>
            <stop stop-color="#808080" stop-opacity="0.12" offset="54%"></stop>
            <stop stop-color="#808080" stop-opacity="0.1" offset="100%"></stop>
        </linearGradient>
    </defs>
    <g id="Illustration" stroke="none" stroke-width="1" fill="none" fill-rule="evenodd">
        <g id="Illustrtion">
            <rect id="Rectangle" x="0" y="0" width="312" height="116"></rect>
            <g id="undraw_team_ih79" transform="translate(97.000000, 0.000000)">
                <g id="Group" opacity="0.5" transform="translate(0.000000, 0.914619)" fill="url(#linearGradient-1)" fill-rule="nonzero">
                    <circle id="Oval" cx="17.7923816" cy="17.6963466" r="17.6658593"></circle>
                </g>
                <circle id="Oval" fill="#F5F5F5" fill-rule="nonzero" cx="17.7923816" cy="18.5149303" r="17.29239"></circle>
                <path d="M17.8411612,35.8561233 C21.2203325,35.8616598 24.5263839,34.8723892 27.3470978,33.011636 C26.7099134,29.5299876 24.2846497,29.3302959 24.2846497,29.3302959 L10.9144493,29.3302959 C10.9144493,29.3302959 8.62790264,29.5177927 7.91145136,32.7220067 C10.8184242,34.7667737 14.2870745,35.8615764 17.8411612,35.8561233 L17.8411612,35.8561233 Z" id="Path" fill="#0097A7" fill-rule="nonzero"></path>
                <circle id="Oval" fill="#333333" fill-rule="nonzero" cx="17.6597619" cy="18.1338392" r="7.66602869"></circle>
                <path d="M14.9662099,25.0864653 L20.3152047,25.0864653 L20.3152047,29.3653563 C20.3152047,30.8420195 19.1181327,32.0390915 17.6414695,32.0390915 L17.6414695,32.0390915 C16.1648063,32.0390915 14.9677343,30.8420195 14.9677343,29.3653563 L14.9677343,25.0864653 L14.9662099,25.0864653 Z" id="Path" fill="#000000" fill-rule="nonzero" opacity="0.1"></path>
                <path d="M15.476872,24.888298 L19.8045426,24.888298 C20.0865735,24.888298 20.3152047,25.1169292 20.3152047,25.39896 L20.3152047,29.1671889 C20.3152047,30.6438521 19.1181327,31.8409241 17.6414695,31.8409241 L17.6414695,31.8409241 C16.1648063,31.8409241 14.9677343,30.6438521 14.9677343,29.1671889 L14.9677343,25.39896 C14.9677343,25.1175234 15.1954366,24.8891381 15.476872,24.888298 Z" id="Path" fill="#BE7C5E" fill-rule="nonzero"></path>
                <path d="M14.9768805,27.1062482 C16.7007371,27.7505424 18.5983744,27.7559503 20.3258752,27.1214918 L20.3258752,26.4644908 L14.9768805,26.4644908 L14.9768805,27.1062482 Z" id="Path" fill="#000000" fill-rule="nonzero" opacity="0.1"></path>
                <circle id="Oval" fill="#BE7C5E" fill-rule="nonzero" cx="17.6597619" cy="19.7984451" r="7.66602869"></circle>
                <path d="M13.0150235,16.6369133 C13.104961,16.3061263 13.2177639,15.9418032 13.515015,15.76955 C13.7497671,15.6323572 14.0409207,15.6536983 14.3122576,15.6674176 C16.4311241,15.7832693 18.5316983,15.3000457 20.592639,14.7954811 C21.7709727,14.5073762 23.0316221,14.1567724 23.7938043,13.2070934 C24.5559865,12.2574143 23.5621009,9.2727088 22.4020596,8.92058061 C21.6398774,8.68735286 20.755746,9.12179672 20.0331973,8.78033909 C19.7115564,8.62790264 19.4752799,8.3428465 19.1978456,8.12028929 C18.6292576,7.66297996 17.8990871,7.47853187 17.191782,7.30475432 C16.3655765,7.10048949 15.4722989,6.90079775 14.6872512,7.2285361 C14.0775055,7.4815806 13.6323911,8.01663251 13.0546569,8.33370031 C11.9555902,8.94344608 10.6156739,8.6599143 9.35654884,8.65686557 C8.93125116,8.65686557 8.42363781,8.74222998 8.25443336,9.13246727 C8.14010603,9.39770668 8.23156789,9.69953083 8.24376281,9.98763571 C8.28034756,10.9022544 7.52578716,11.6141326 6.89317593,12.2741823 C6.26056469,12.9342321 5.66301384,13.8762894 6.06239732,14.6963974 C6.21483376,15.0088921 6.49379245,15.2451686 6.65232635,15.5546146 C6.92518758,16.0911909 6.78799478,16.7390457 6.88707847,17.3320235 C6.98628522,17.7819736 7.15442481,18.2138918 7.38554564,18.6124896 C7.85504988,19.5271083 10.2132416,24.4508054 11.2970648,23.1993022 C11.8214461,22.5895564 11.9068105,20.8273911 12.1186972,20.0347216 C12.4113751,18.8955133 12.7101506,17.7629105 13.0150235,16.6369133 Z" id="Path" fill="#333333" fill-rule="nonzero"></path>
                <ellipse id="Oval" fill="#BE7C5E" fill-rule="nonzero" cx="12.2055859" cy="19.5194865" rx="1" ry="1.3368676"></ellipse>
                <g id="Group" opacity="0.5" transform="translate(41.005403, 39.328602)" fill="url(#linearGradient-1)" fill-rule="nonzero">
                    <circle id="Oval" cx="17.6948222" cy="17.731407" r="17.6658593"></circle>
                </g>
                <circle id="Oval" fill="#F5F5F5" fill-rule="nonzero" cx="58.7337613" cy="56.9472062" r="17.29239"></circle>
                <path d="M58.7490049,74.3082155 C62.1261005,74.3125553 65.4298625,73.3233352 68.248844,71.4637286 C67.6116597,67.9820802 65.1863959,67.7823885 65.1863959,67.7823885 L51.8207686,67.7823885 C51.8207686,67.7823885 49.534222,67.9698853 48.8177707,71.1740994 C51.7251688,73.2191665 55.1943981,74.3139839 58.7490049,74.3082155 Z" id="Path" fill="#0097A7" fill-rule="nonzero"></path>
                <circle id="Oval" fill="#F55F44" fill-rule="nonzero" cx="58.5660812" cy="56.5828831" r="8.34741959"></circle>
                <path d="M55.8725293,63.5355092 L61.221524,63.5355092 L61.221524,67.8144002 C61.221524,69.2910633 60.024452,70.4881354 58.5477888,70.4881354 L58.5477888,70.4881354 C57.0711256,70.4881354 55.8740536,69.2910633 55.8740536,67.8144002 L55.8740536,63.5355092 L55.8725293,63.5355092 Z" id="Path" fill="#000000" fill-rule="nonzero" opacity="0.1"></path>
                <path d="M56.3831913,63.3373418 L60.7108619,63.3373418 C60.8462979,63.3373418 60.9761868,63.3911436 61.0719546,63.4869113 C61.1677223,63.582679 61.221524,63.7125679 61.221524,63.8480039 L61.221524,67.6162328 C61.221524,68.3253515 60.9398277,69.0054265 60.4384051,69.5068491 C59.9369825,70.0082717 59.2569075,70.289968 58.5477888,70.289968 L58.5477888,70.289968 C57.8386702,70.289968 57.1585951,70.0082717 56.6571725,69.5068491 C56.1557499,69.0054265 55.8740536,68.3253515 55.8740536,67.6162328 L55.8740536,63.8480039 C55.8740536,63.565973 56.1026848,63.3373418 56.3847157,63.3373418 L56.3831913,63.3373418 Z" id="Path" fill="#FDA57D" fill-rule="nonzero"></path>
                <path d="M55.8831998,65.5552921 C57.6070565,66.1995863 59.5046937,66.2049942 61.2321946,65.5705357 L61.2321946,64.9135347 L55.8831998,64.9135347 L55.8831998,65.5552921 Z" id="Path" fill="#000000" fill-rule="nonzero" opacity="0.1"></path>
                <circle id="Oval" fill="#FDA57D" fill-rule="nonzero" cx="58.5660812" cy="58.247489" r="7.66602869"></circle>
                <circle id="Oval" fill="#F55F44" fill-rule="nonzero" cx="58.5554106" cy="48.0921732" r="3.0853136"></circle>
                <circle id="Oval" fill="#F55F44" fill-rule="nonzero" cx="58.5554106" cy="45.0541149" r="2.02588032"></circle>
                <path d="M57.2170187,49.7842177 C55.7133771,49.1097406 55.0052486,47.3726443 55.6088142,45.8391626 C55.5874731,45.8818448 55.566132,45.9260514 55.5463153,45.970258 C55.0951117,46.9761396 55.2148139,48.1463268 55.8603312,49.0400214 C56.5058485,49.933716 57.5791115,50.4151445 58.6758323,50.3029574 C59.7725532,50.1907703 60.7261139,49.5020115 61.1773175,48.4961298 C61.1971342,48.4519232 61.2154266,48.4077167 61.2337189,48.3619857 C60.4897361,49.8329591 58.7208688,50.4592791 57.2170187,49.7842177 Z" id="Path" fill="#F55F44" fill-rule="nonzero"></path>
                <path d="M53.1073322,51.2750462 C53.1073322,51.2750462 56.3374604,57.8298132 65.454684,54.0189021 L63.3327688,50.6912146 L59.5721617,49.3406277 L53.1073322,51.2750462 Z" id="Path" fill="#000000" fill-rule="nonzero" opacity="0.1"></path>
                <path d="M53.1073322,51.1774868 C53.1073322,51.1774868 56.3374604,57.7322539 65.454684,53.9213428 L63.3327688,50.5936553 L59.5721617,49.2430684 L53.1073322,51.1774868 Z" id="Path" fill="#F55F44" fill-rule="nonzero"></path>
                <path d="M55.5966193,48.7903321 C57.5843701,48.6339972 59.5813283,48.6339972 61.5690791,48.7903321 C61.5690791,48.7903321 57.1575685,49.2003862 55.5966193,48.7903321 Z" id="Path" fill="#333333" fill-rule="nonzero"></path>
                <path d="M59.0188174,42.9047611 C58.8655461,42.8991385 58.7121311,42.9109003 58.5615081,42.9398215 L58.6788842,42.9398215 C59.7120817,42.9728722 60.5544066,43.7790595 60.6327018,44.8098162 C60.710997,45.8405728 60.0001081,46.7647407 58.9837571,46.953473 C60.1017779,46.9635756 61.0163027,46.0654303 61.0264053,44.9474094 C61.0365079,43.8293885 60.1383627,42.9148637 59.0203418,42.9047611 L59.0188174,42.9047611 Z" id="Path" fill="#F55F44" fill-rule="nonzero"></path>
                <ellipse id="Oval" fill="#FDA57D" fill-rule="nonzero" cx="50.8985281" cy="58.2398672" rx="1" ry="1.3368676"></ellipse>
                <ellipse id="Oval" fill="#FDA57D" fill-rule="nonzero" cx="66.2321099" cy="58.2398672" rx="1" ry="1.3368676"></ellipse>
                <polygon id="Path" fill="#F55F44" fill-rule="nonzero" points="52.6241087 51.3710811 54.1195102 50.5997527 54.4563947 51.8360123 53.5402517 52.4594773"></polygon>
                <g id="Group" opacity="0.5" transform="translate(41.005403, 0.000000)" fill="url(#linearGradient-2)" fill-rule="nonzero">
                    <circle id="Oval" cx="17.6780542" cy="17.7436019" r="17.6658593"></circle>
                </g>
                <circle id="Oval" fill="#F5F5F5" fill-rule="nonzero" cx="58.6834573" cy="17.6475669" r="17.29239"></circle>
                <path d="M51.9381447,17.8015278 C51.9381447,17.8015278 49.977812,27.4599007 48.9077082,26.9248488 C48.9077082,26.9248488 59.2276554,35.839332 68.3403059,26.9248488 C68.3403059,26.9248488 66.7351501,20.1185617 64.4181162,17.8015278 L51.9381447,17.8015278 Z" id="Path" fill="#333333" fill-rule="nonzero"></path>
                <path d="M58.7322369,34.9918087 C62.1114082,34.9973452 65.4174596,34.0080745 68.2381735,32.1473214 C67.6009891,28.665673 65.1757253,28.4659813 65.1757253,28.4659813 L51.8040006,28.4659813 C51.8040006,28.4659813 49.517454,28.6534781 48.8010027,31.8576921 C51.7084008,33.9027593 55.1776301,34.9975767 58.7322369,34.9918087 Z" id="Path" fill="#0097A7" fill-rule="nonzero"></path>
                <circle id="Oval" fill="#333333" fill-rule="nonzero" cx="58.5493132" cy="17.2664758" r="7.66602869"></circle>
                <path d="M55.8557613,24.219102 L61.204756,24.219102 L61.204756,28.4979929 C61.204756,29.972872 60.0104709,31.1692055 58.5355939,31.1717281 L58.5355939,31.1717281 C57.0589307,31.1717281 55.8618587,29.9746561 55.8618587,28.4979929 L55.8618587,24.219102 L55.8557613,24.219102 Z" id="Path" fill="#000000" fill-rule="nonzero" opacity="0.1"></path>
                <path d="M56.3664233,24.0209346 L60.6940939,24.0209346 C60.9761248,24.0209346 61.204756,24.2495658 61.204756,24.5315967 L61.204756,28.2998255 C61.204756,29.7747047 60.0104709,30.9710381 58.5355939,30.9735607 L58.5355939,30.9735607 C57.0589307,30.9735607 55.8618587,29.7764887 55.8618587,28.2998255 L55.8618587,24.5300723 C55.8626719,24.2509996 56.0873693,24.0242656 56.3664233,24.0209346 Z" id="Path" fill="#BE7C5E" fill-rule="nonzero"></path>
                <path d="M55.8664318,26.2388848 C57.5902885,26.8831791 59.4879257,26.888587 61.2154266,26.2541285 L61.2154266,25.5971274 L55.8664318,25.5971274 L55.8664318,26.2388848 Z" id="Path" fill="#000000" fill-rule="nonzero" opacity="0.1"></path>
                <circle id="Oval" fill="#BE7C5E" fill-rule="nonzero" cx="58.5493132" cy="18.9295574" r="7.66602869"></circle>
                <path d="M51.2216934,16.0180214 L65.8403482,16.0180214 C65.8403482,16.0180214 64.5918938,10.1156823 59.0660727,10.4922003 C53.5402517,10.8687183 51.2216934,16.0180214 51.2216934,16.0180214 Z" id="Path" fill="#333333" fill-rule="nonzero"></path>
                <ellipse id="Oval" fill="#BE7C5E" fill-rule="nonzero" cx="51.0418184" cy="18.6033434" rx="1" ry="1.3368676"></ellipse>
                <ellipse id="Oval" fill="#BE7C5E" fill-rule="nonzero" cx="66.0171745" cy="18.6033434" rx="1" ry="1.3368676"></ellipse>
                <path d="M51.2216934,16.2161888 L65.8403482,16.2161888 C65.8403482,16.2161888 64.5918938,10.3138497 59.0660727,10.6903677 C53.5402517,11.0668857 51.2216934,16.2161888 51.2216934,16.2161888 Z" id="Path" fill="#000000" fill-rule="nonzero" opacity="0.1"></path>
                <g id="Group" opacity="0.5" transform="translate(83.077861, 0.000000)" fill="url(#linearGradient-3)" fill-rule="nonzero">
                    <circle id="Oval" cx="17.7176877" cy="17.6658593" r="17.6658593"></circle>
                </g>
                <circle id="Oval" fill="#F5F5F5" fill-rule="nonzero" cx="100.829085" cy="17.551532" r="17.29239"></circle>
                <path d="M100.844329,34.9140661 C104.2235,34.9196026 107.529551,33.930332 110.350265,32.0695788 C109.711556,28.5864061 107.287817,28.3867143 107.287817,28.3867143 L93.9176166,28.3867143 C93.9176166,28.3867143 91.6310699,28.5742111 90.9146187,31.7784252 C93.8214118,33.8237332 97.2900767,34.919073 100.844329,34.9140661 Z" id="Path" fill="#0097A7" fill-rule="nonzero"></path>
                <circle id="Oval" fill="#72351C" fill-rule="nonzero" cx="100.662929" cy="17.1872089" r="8.34741959"></circle>
                <path d="M97.9678528,24.139835 L103.316852,24.139835 L103.316852,28.418726 C103.318062,29.1286366 103.036902,29.8098871 102.535347,30.3122992 C102.033793,30.8147113 101.353024,31.0970343 100.643112,31.0970343 L100.643112,31.0970343 C99.1664492,31.0970343 97.9693772,29.8999622 97.9693772,28.4232991 L97.9693772,24.139835 L97.9678528,24.139835 Z" id="Path" fill="#000000" fill-rule="nonzero" opacity="0.1"></path>
                <path d="M98.4739418,23.9416677 L102.801612,23.9416677 C103.083643,23.9416677 103.312275,24.1702989 103.312275,24.4523297 L103.312275,28.2205586 C103.312275,29.6972218 102.115202,30.8942938 100.638539,30.8942938 L100.638539,30.8942938 C99.1618761,30.8942938 97.9648041,29.6972218 97.9648041,28.2205586 L97.9648041,24.4523297 C97.9648041,24.1702989 98.1934353,23.9416677 98.4754662,23.9416677 L98.4739418,23.9416677 Z" id="Path" fill="#FDA57D" fill-rule="nonzero"></path>
                <path d="M97.9739503,26.1596179 C99.697807,26.8039121 101.595444,26.80932 103.322945,26.1748615 L103.322945,25.5178605 L97.9739503,25.5178605 L97.9739503,26.1596179 Z" id="Path" fill="#000000" fill-rule="nonzero" opacity="0.1"></path>
                <circle id="Oval" fill="#FDA57D" fill-rule="nonzero" cx="100.662929" cy="18.8518148" r="7.66602869"></circle>
                <path d="M95.2026558,11.879372 C95.2026558,11.879372 98.432784,18.434139 107.550008,14.6232279 L105.428092,11.2955404 L101.667485,9.94495351 L95.2026558,11.879372 Z" id="Path" fill="#000000" fill-rule="nonzero" opacity="0.1"></path>
                <path d="M95.2026558,11.783337 C95.2026558,11.783337 98.432784,18.338104 107.550008,14.527193 L105.428092,11.1995054 L101.667485,9.84891855 L95.2026558,11.783337 Z" id="Path" fill="#72351C" fill-rule="nonzero"></path>
                <path d="M95.1736929,11.339747 C95.3914655,10.6654995 95.7678499,10.0533521 96.2712352,9.55471621 C97.7788317,8.06388781 100.251351,7.74986874 101.519622,6.04867804 C101.658973,6.2921507 101.688764,6.58322918 101.601623,6.84988263 C101.514481,7.11653607 101.318549,7.33384895 101.062313,7.44804458 C102.281804,7.44042276 103.685744,7.33371725 104.371708,6.33373418 C104.718229,7.14029525 104.569287,8.07430272 103.989092,8.73308379 C105.065294,8.78186345 106.214664,9.51203401 106.284785,10.5882353 C106.330516,11.3046866 105.882353,11.9830287 105.292424,12.3946071 C104.702495,12.8061855 103.992141,12.9906336 103.290933,13.1430701 C101.245236,13.6003794 93.8383496,15.4921156 95.1736929,11.339747 Z" id="Path" fill="#72351C" fill-rule="nonzero"></path>
                <path d="M108.328958,18.9188869 L108.126217,18.9188869 L104.172016,22.4416931 C100.361105,20.6581867 97.5654206,22.4416931 97.5654206,22.4416931 L93.4191494,19.0667502 L93.0014736,19.1185786 C93.1191359,23.305113 96.5749664,26.6223307 100.762809,26.5686083 C104.950652,26.514886 108.320252,23.1101107 108.330482,18.9219356 L108.328958,18.9188869 Z M100.652259,23.7892312 C99.1614302,23.7892312 97.9526092,23.4843583 97.9526092,23.1139378 C97.9526092,22.7435172 99.1614302,22.4386443 100.652259,22.4386443 C102.143087,22.4386443 103.351908,22.7435172 103.351908,23.1139378 C103.351908,23.4843583 102.143087,23.7892312 100.650734,23.7892312 L100.652259,23.7892312 Z" id="Shape" fill="#72351C" fill-rule="nonzero"></path>
                <ellipse id="Oval" fill="#FDA57D" fill-rule="nonzero" cx="92.9938517" cy="18.844193" rx="1" ry="1.3368676"></ellipse>
                <ellipse id="Oval" fill="#FDA57D" fill-rule="nonzero" cx="108.327433" cy="18.844193" rx="1" ry="1.3368676"></ellipse>
                <g id="Group" opacity="0.5" transform="translate(0.000000, 38.109111)" fill="url(#linearGradient-1)" fill-rule="nonzero">
                    <circle id="Oval" cx="17.6658593" cy="17.7939059" r="17.6658593"></circle>
                </g>
                <circle id="Oval" fill="#F5F5F5" fill-rule="nonzero" cx="17.6993953" cy="55.7902136" r="17.29239"></circle>
                <path d="M17.714639,73.1512339 C21.0932913,73.1564605 24.3987703,72.1672025 27.2190512,70.306736 C26.5818668,66.8250877 24.156603,66.6253959 24.156603,66.6253959 L10.7803052,66.6253959 C10.7803052,66.6253959 8.49375857,66.8128927 7.77730729,70.0171068 C10.6864064,72.0633753 14.157952,73.1582514 17.714639,73.1512339 L17.714639,73.1512339 Z" id="Path" fill="#0097A7" fill-rule="nonzero"></path>
                <circle id="Oval" fill="#333333" fill-rule="nonzero" cx="17.5317152" cy="55.4258905" r="8.34741959"></circle>
                <path d="M14.8381633,62.3785166 L20.1871581,62.3785166 L20.1871581,66.6574076 C20.1871581,68.1340707 18.9900861,69.3311428 17.5134229,69.3311428 L17.5134229,69.3311428 C16.8043042,69.3311428 16.1242292,69.0494465 15.6228066,68.5480239 C15.121384,68.0466012 14.8396877,67.3665262 14.8396877,66.6574076 L14.8396877,62.3785166 L14.8381633,62.3785166 Z" id="Path" fill="#000000" fill-rule="nonzero" opacity="0.1"></path>
                <path d="M15.3488254,62.1803492 L19.676496,62.1803492 C19.9585269,62.1803492 20.1871581,62.4089805 20.1871581,62.6910113 L20.1871581,66.4622889 C20.1871581,67.9389521 18.9900861,69.1360246 17.5134229,69.1360246 L17.5134229,69.1360246 C16.8040401,69.1364286 16.1235734,68.8549108 15.6218211,68.3534444 C15.1200687,67.8519779 14.8381633,67.1716718 14.8381633,66.4622889 L14.8381633,62.689487 C14.8381633,62.4074561 15.0667945,62.1788249 15.3488254,62.1788249 L15.3488254,62.1803492 Z" id="Path" fill="#FDB797" fill-rule="nonzero"></path>
                <path d="M14.8488339,64.3982995 C16.5726905,65.0425937 18.4703277,65.0480016 20.1978286,64.4135431 L20.1978286,63.751969 L14.8488339,63.751969 L14.8488339,64.3982995 Z" id="Path" fill="#000000" fill-rule="nonzero" opacity="0.1"></path>
                <circle id="Oval" fill="#FDB797" fill-rule="nonzero" cx="17.5317152" cy="57.0904964" r="7.66602869"></circle>
                <path d="M12.0729662,50.1165292 C12.0729662,50.1165292 15.3030945,56.6712962 24.4203181,52.8603852 L22.2984028,49.5326976 L18.5377958,48.1821107 L12.0729662,50.1165292 Z" id="Path" fill="#000000" fill-rule="nonzero" opacity="0.1"></path>
                <path d="M12.0729662,50.0204942 C12.0729662,50.0204942 15.3030945,56.5752613 24.4203181,52.7643502 L22.2984028,49.4366627 L18.5377958,48.0860758 L12.0729662,50.0204942 Z" id="Path" fill="#333333" fill-rule="nonzero"></path>
                <path d="M12.0440033,49.5753798 C12.2617759,48.9011324 12.6381604,48.2889849 13.1415457,47.7903491 C14.6491421,46.2995207 17.1216612,45.9855016 18.3899324,44.2843109 C18.5292837,44.5277836 18.5590746,44.818862 18.471933,45.0855155 C18.3847913,45.3521689 18.1888595,45.5694818 17.9326231,45.6836774 C19.1521146,45.6760556 20.5560543,45.5693501 21.2420183,44.5693671 C21.5885399,45.3759281 21.4395971,46.3099356 20.8594028,46.9687167 C21.9356041,47.0174963 23.0849748,47.7476669 23.1550956,48.8238682 C23.2008265,49.5403194 22.7526634,50.2186616 22.1627344,50.63024 C21.5728053,51.0418184 20.8609272,51.2293152 20.1597195,51.3848004 C18.1140225,51.839061 10.7086601,53.7307972 12.0440033,49.5753798 Z" id="Path" fill="#333333" fill-rule="nonzero"></path>
                <ellipse id="Oval" fill="#FDB797" fill-rule="nonzero" cx="9.86263783" cy="57.0828746" rx="1" ry="1.3368676"></ellipse>
                <ellipse id="Oval" fill="#FDB797" fill-rule="nonzero" cx="25.1962196" cy="57.0828746" rx="1" ry="1.3368676"></ellipse>
                <g id="Group" opacity="0.5" transform="translate(83.687607, 40.090784)" fill="url(#linearGradient-1)" fill-rule="nonzero">
                    <circle id="Oval" cx="17.7664674" cy="17.7710405" r="17.6658593"></circle>
                </g>
                <circle id="Oval" fill="#F5F5F5" fill-rule="nonzero" cx="101.454074" cy="57.7657899" r="17.29239"></circle>
                <path d="M101.502854,75.1100316 C104.882025,75.1155681 108.188077,74.1262975 111.008791,72.2655443 C110.371606,68.7838959 107.946342,68.5842042 107.946342,68.5842042 L94.5746176,68.5842042 C94.5746176,68.5842042 92.288071,68.771701 91.5716197,71.975915 C94.4790178,74.0209822 97.9482471,75.1157996 101.502854,75.1100316 Z" id="Path" fill="#0097A7" fill-rule="nonzero"></path>
                <path d="M98.6263783,64.3373249 L103.975373,64.3373249 L103.975373,68.6162159 C103.975373,70.092879 102.778301,71.2899515 101.301638,71.2899515 L101.301638,71.2899515 C100.592255,71.2903555 99.9117884,71.0088377 99.4100361,70.5073713 C98.9082837,70.0059048 98.6263783,69.3255987 98.6263783,68.6162159 L98.6263783,64.3373249 Z" id="Path" fill="#000000" fill-rule="nonzero" opacity="0.1"></path>
                <path d="M99.1370404,64.1391575 L103.464711,64.1391575 C103.746742,64.1391575 103.975373,64.3677887 103.975373,64.6498196 L103.975373,68.4180485 C103.975373,69.8947117 102.778301,71.0917841 101.301638,71.0917841 L101.301638,71.0917841 C100.592255,71.0921881 99.9117884,70.8106704 99.4100361,70.3092039 C98.9082837,69.8077375 98.6263783,69.1274313 98.6263783,68.4180485 L98.6263783,64.6498196 C98.6263783,64.3677887 98.8550095,64.1391575 99.1370404,64.1391575 L99.1370404,64.1391575 Z" id="Path" fill="#FDB797" fill-rule="nonzero"></path>
                <path d="M98.6370488,66.3571078 C100.360906,67.001402 102.258543,67.0068099 103.986044,66.3723514 L103.986044,65.7153503 L98.6370488,65.7153503 L98.6370488,66.3571078 Z" id="Path" fill="#000000" fill-rule="nonzero" opacity="0.1"></path>
                <circle id="Oval" fill="#FDB797" fill-rule="nonzero" cx="101.31993" cy="59.0493047" r="7.66602869"></circle>
                <ellipse id="Oval" fill="#FDB797" fill-rule="nonzero" cx="93.8124354" cy="58.7215664" rx="1" ry="1.3368676"></ellipse>
                <ellipse id="Oval" fill="#FDB797" fill-rule="nonzero" cx="108.787792" cy="58.7215664" rx="1" ry="1.3368676"></ellipse>
                <rect id="Rectangle" stroke="#333333" stroke-width="0.662251656" x="96.6492776" y="59.0858895" width="3.27890788" height="1.64021612" rx="0.820108061"></rect>
                <rect id="Rectangle" stroke="#333333" stroke-width="0.662251656" transform="translate(104.352653, 59.904473) rotate(180.000000) translate(-104.352653, -59.904473) " x="102.713199" y="59.0843651" width="3.27890788" height="1.64021612" rx="0.820108061"></rect>
                <path d="M99.8031876,59.2444234 C99.8031876,59.2444234 100.842804,58.6804085 102.775698,59.2444234" id="Path" stroke="#333333" stroke-width="0.662251656"></path>
                <path d="M106.620145,53.4929964 L108.501211,57.8633492 C108.501211,57.8633492 110.801477,54.9640081 106.620145,53.4929964 Z" id="Path" fill="#858585" fill-rule="nonzero"></path>
                <line x1="105.992107" y1="59.9059975" x2="108.799986" y2="57.398418" id="Path" stroke="#333333" stroke-width="0.662251656" stroke-linecap="round" stroke-linejoin="round"></line>
                <path d="M96.0227638,53.4929964 L94.1416981,57.8633492 C94.1416981,57.8633492 91.8414322,54.9640081 96.0227638,53.4929964 Z" id="Path" fill="#858585" fill-rule="nonzero"></path>
                <line x1="96.6492776" y1="59.9059975" x2="93.8032892" y2="57.398418" id="Path" stroke="#333333" stroke-width="0.662251656" stroke-linecap="round" stroke-linejoin="round"></line>
                <g id="Group" opacity="0.5" transform="translate(0.000000, 77.895022)" fill="url(#linearGradient-1)" fill-rule="nonzero">
                    <circle id="Oval" cx="17.7923816" cy="17.7222608" r="17.6658593"></circle>
                </g>
                <circle id="Oval" fill="#F5F5F5" fill-rule="nonzero" cx="17.7923816" cy="95.5212479" r="17.29239"></circle>
                <path d="M27.3577683,97.0760997 C27.3577683,103.444894 23.2023509,110.534713 18.0759133,110.534713 C12.9494758,110.534713 8.79863146,103.444894 8.79863146,97.0760997 C8.79863146,90.7073051 12.9540489,87.4726038 18.0804864,87.4726038 C23.206924,87.4726038 27.3577683,90.7088295 27.3577683,97.0760997 Z" id="Path" fill="#FDD835" fill-rule="nonzero"></path>
                <path d="M17.8411612,112.867014 C21.2203325,112.872551 24.5263839,111.88328 27.3470978,110.022527 C26.7099134,106.540878 24.2846497,106.341187 24.2846497,106.341187 L10.9144493,106.341187 C10.9144493,106.341187 8.62790264,106.528683 7.91145136,109.732897 C10.8184242,111.777664 14.2870745,112.872467 17.8411612,112.867014 L17.8411612,112.867014 Z" id="Path" fill="#0097A7" fill-rule="nonzero"></path>
                <path d="M14.9662099,102.092783 L20.3152047,102.092783 L20.3152047,106.371674 C20.3152047,107.848337 19.1181327,109.045409 17.6414695,109.045409 L17.6414695,109.045409 C16.1648063,109.045409 14.9677343,107.848337 14.9677343,106.371674 L14.9677343,102.092783 L14.9662099,102.092783 Z" id="Path" fill="#000000" fill-rule="nonzero" opacity="0.1"></path>
                <path d="M15.476872,101.894616 L19.8045426,101.894616 C20.0865735,101.894616 20.3152047,102.123247 20.3152047,102.405278 L20.3152047,106.173507 C20.3152047,107.65017 19.1181327,108.847242 17.6414695,108.847242 L17.6414695,108.847242 C16.1648063,108.847242 14.9677343,107.65017 14.9677343,106.173507 L14.9677343,102.405278 C14.9677343,102.123841 15.1954366,101.895456 15.476872,101.894616 Z" id="Path" fill="#FDB797" fill-rule="nonzero"></path>
                <path d="M14.9768805,104.112566 C16.7007371,104.75686 18.5983744,104.762268 20.3258752,104.127809 L20.3258752,103.470808 L14.9768805,103.470808 L14.9768805,104.112566 Z" id="Path" fill="#000000" fill-rule="nonzero" opacity="0.1"></path>
                <circle id="Oval" fill="#FDB797" fill-rule="nonzero" cx="17.6597619" cy="96.8047628" r="7.66602869"></circle>
                <ellipse id="Oval" fill="#FDB797" fill-rule="nonzero" cx="10.1522671" cy="96.4770244" rx="1" ry="1.3368676"></ellipse>
                <ellipse id="Oval" fill="#FDB797" fill-rule="nonzero" cx="25.1276232" cy="96.4770244" rx="1" ry="1.3368676"></ellipse>
                <path d="M10.867194,92.6462966 C10.867194,92.6462966 15.200962,98.5775986 25.1398181,96.5517183 C25.1398181,96.5517183 26.2495554,95.2011314 23.5483816,91.0548602 C20.8472079,86.9085889 13.3259938,87.5838824 10.867194,92.6462966 Z" id="Path" fill="#000000" fill-rule="nonzero" opacity="0.1"></path>
                <path d="M10.867194,92.5502617 C10.867194,92.5502617 15.200962,98.4815637 25.1398181,96.4556833 C25.1398181,96.4556833 26.2495554,95.1050965 23.5483816,90.9588252 C20.8472079,86.812554 13.3259938,87.4878474 10.867194,92.5502617 Z" id="Path" fill="#FDD835" fill-rule="nonzero"></path>
                <g id="Group" opacity="0.5" transform="translate(42.072458, 79.876696)" fill="url(#linearGradient-1)" fill-rule="nonzero">
                    <circle id="Oval" cx="17.6872004" cy="17.7664674" r="17.6658593"></circle>
                </g>
                <circle id="Oval" fill="#F5F5F5" fill-rule="nonzero" cx="59.7947189" cy="97.5303603" r="17.29239"></circle>
                <path d="M69.3082773,99.2345997 C69.3082773,104.987551 65.1757253,107.818296 59.8084382,107.818296 C54.4411511,107.818296 49.8756796,104.987551 49.8756796,99.2345997 C49.8756796,93.4816483 54.2262157,88.8186176 59.5919785,88.8186176 C64.9577412,88.8186176 69.3082773,93.4770753 69.3082773,99.2345997 Z" id="Path" fill="#333333" fill-rule="nonzero"></path>
                <path d="M59.8084382,114.891373 C63.1881284,114.897206 66.4947522,113.907923 69.3158991,112.046883 C68.6787148,108.565234 66.253451,108.365543 66.253451,108.365543 L52.8817263,108.365543 C52.8817263,108.365543 50.5951796,108.553039 49.8787283,111.757253 C52.7857011,113.80202 56.2543514,114.896823 59.8084382,114.891373 L59.8084382,114.891373 Z" id="Path" fill="#0097A7" fill-rule="nonzero"></path>
                <path d="M56.9334869,104.11409 L62.2824856,104.11409 L62.2824856,108.392981 C62.2836995,109.10395 62.0017031,109.786127 61.4988287,110.288715 C60.9959544,110.791304 60.3136167,111.072912 59.602649,111.071296 L59.602649,111.071296 C58.8935303,111.071296 58.2134553,110.789593 57.7120327,110.288171 C57.2106101,109.786748 56.9289138,109.106673 56.9289138,108.397554 L56.9289138,104.11409 L56.9334869,104.11409 Z" id="Path" fill="#000000" fill-rule="nonzero" opacity="0.1"></path>
                <path d="M57.4426246,103.920496 L61.7702952,103.920496 C62.0523261,103.920496 62.2809573,104.149127 62.2809573,104.431158 L62.2809573,108.199387 C62.2809573,108.909299 61.9986344,109.590068 61.4962223,110.091622 C60.9938101,110.593176 60.3125597,110.874336 59.602649,110.873126 L59.602649,110.873126 C58.8935303,110.873126 58.2134553,110.591426 57.7120327,110.090003 C57.2106101,109.588581 56.9289138,108.908506 56.9289138,108.199387 L56.9289138,104.429634 C56.9289138,104.294198 56.9827155,104.164309 57.0784833,104.068541 C57.174251,103.972773 57.3041399,103.918972 57.4395759,103.918972 L57.4426246,103.920496 Z" id="Path" fill="#FDA57D" fill-rule="nonzero"></path>
                <path d="M56.9441574,106.138446 C58.6680141,106.78274 60.5656513,106.788148 62.2931522,106.15369 L62.2931522,105.496689 L56.9441574,105.496689 L56.9441574,106.138446 Z" id="Path" fill="#000000" fill-rule="nonzero" opacity="0.1"></path>
                <circle id="Oval" fill="#FDA57D" fill-rule="nonzero" cx="59.6270388" cy="98.8291187" r="7.66602869"></circle>
                <path d="M50.7918226,99.3306346 C50.7918226,99.3306346 55.566132,98.7513762 59.175827,94.1234058 C59.175827,94.1234058 63.9501363,99.3794143 67.2762995,98.8001558 C67.2762995,98.8001558 69.2046205,96.7742755 67.2762995,94.7499195 C65.3479785,92.7255636 63.852577,90.1692045 61.2977422,90.506089 C58.7429075,90.8429735 55.6072898,90.9877881 54.2582273,92.1935604 C52.9091648,93.3993327 50.7918226,99.3306346 50.7918226,99.3306346 Z" id="Path" fill="#000000" fill-rule="nonzero" opacity="0.1"></path>
                <path d="M50.7918226,99.2345997 C50.7918226,99.2345997 55.566132,98.6553412 59.175827,94.0273708 C59.175827,94.0273708 63.9501363,99.2833793 67.2762995,98.7041209 C67.2762995,98.7041209 69.2046205,96.6782405 67.2762995,94.6538846 C65.3479785,92.6295286 63.852577,90.0731695 61.2977422,90.410054 C58.7429075,90.7469386 55.6133873,90.8856557 54.2643248,92.1051473 C52.9152623,93.3246388 50.7918226,99.2345997 50.7918226,99.2345997 Z" id="Path" fill="#333333" fill-rule="nonzero"></path>
                <ellipse id="Oval" fill="#FDA57D" fill-rule="nonzero" cx="51.9579614" cy="98.8230213" rx="1" ry="1.3368676"></ellipse>
                <ellipse id="Oval" fill="#FDA57D" fill-rule="nonzero" cx="67.2915432" cy="98.8230213" rx="1" ry="1.3368676"></ellipse>
            </g>
        </g>
    </g>
</svg>